<svg width="201" height="222" viewBox="0 0 201 222" fill="none" xmlns="http://www.w3.org/2000/svg">
<g filter="url(#filter0_dd_1623_507)">
<rect x="13.4778" y="9.47776" width="173.443" height="195.044" rx="45.5222" stroke="url(#paint0_linear_1623_507)" stroke-width="4.95552"/>
<g opacity="0.8">
<path d="M73.1976 90.7988C65.4991 98.4972 60.9609 108.725 60.5811 119.233C60.2013 129.74 64.0111 139.666 71.1724 146.827C78.3337 153.989 88.2599 157.799 98.7673 157.419C109.275 157.039 119.503 152.501 127.201 144.802L73.1976 90.7988Z" fill="#CED4DA"/>
<path d="M71.5099 81.0107C70.7643 80.2651 70.7643 79.0562 71.5099 78.3105C72.2556 77.5649 73.4645 77.5649 74.2101 78.3105L128.889 132.989C129.634 133.735 129.634 134.944 128.889 135.689C128.143 136.435 126.934 136.435 126.188 135.689L71.5099 81.0107Z" fill="#CED4DA"/>
<path d="M127.201 123.201C134.899 115.503 139.438 105.275 139.818 94.7672C140.197 84.2598 136.388 74.3336 129.226 67.1723C122.065 60.011 112.139 56.2012 101.631 56.581C91.1239 56.9607 80.896 61.499 73.1976 69.1974L127.201 123.201Z" fill="#CED4DA"/>
</g>
</g>
<defs>
<filter id="filter0_dd_1623_507" x="0" y="0" width="200.399" height="222" filterUnits="userSpaceOnUse" color-interpolation-filters="sRGB">
<feFlood flood-opacity="0" result="BackgroundImageFix"/>
<feColorMatrix in="SourceAlpha" type="matrix" values="0 0 0 0 0 0 0 0 0 0 0 0 0 0 0 0 0 0 127 0" result="hardAlpha"/>
<feOffset dy="1"/>
<feGaussianBlur stdDeviation="1.5"/>
<feColorMatrix type="matrix" values="0 0 0 0 0 0 0 0 0 0 0 0 0 0 0 0 0 0 0.3 0"/>
<feBlend mode="normal" in2="BackgroundImageFix" result="effect1_dropShadow_1623_507"/>
<feColorMatrix in="SourceAlpha" type="matrix" values="0 0 0 0 0 0 0 0 0 0 0 0 0 0 0 0 0 0 127 0" result="hardAlpha"/>
<feMorphology radius="3" operator="dilate" in="SourceAlpha" result="effect2_dropShadow_1623_507"/>
<feOffset dy="4"/>
<feGaussianBlur stdDeviation="4"/>
<feColorMatrix type="matrix" values="0 0 0 0 0 0 0 0 0 0 0 0 0 0 0 0 0 0 0.15 0"/>
<feBlend mode="normal" in2="effect1_dropShadow_1623_507" result="effect2_dropShadow_1623_507"/>
<feBlend mode="normal" in="SourceGraphic" in2="effect2_dropShadow_1623_507" result="shape"/>
</filter>
<linearGradient id="paint0_linear_1623_507" x1="214.199" y1="-27.2317" x2="-43.3007" y2="287.268" gradientUnits="userSpaceOnUse">
<stop stop-color="#8E8E8E" stop-opacity="0.86"/>
<stop offset="1" stop-color="#F0F0F0" stop-opacity="0.93"/>
</linearGradient>
</defs>
</svg>
